<?xml version="1.0" encoding="UTF-8"?>
<svg id="Layer_2" data-name="Layer 2" xmlns="http://www.w3.org/2000/svg" viewBox="0 0 2065.58 1450.63">
  <g id="Layer_1-2" data-name="Layer 1">
    <path d="M1094.46,1450.63c-39.72,0-102.74-67.38-117.88-102.36-16.31-37.66-34.9-174.45-37.12-219.07-2.94-59.29,16.11-46.39,47.41-73.83,10.41-9.13,58.47-70.45,61.85-81.96,9-30.63-2.83-47.35-14.15-74.19-12.89-30.57-56.31-130.81-74.76-149.98-40.37-41.93-102.66-92.49-148.63-130.04-246.3-201.19-371.09-246.36-696.77-234.02-36.55,1.38-78.01,11.49-114.41,6.95,57.42-27.44,126.12-40.81,188.7-54.02,151.89-32.06,264.12-45.59,418.91-14.26,189.55,38.37,288.54,117.34,499.69,92.34,101.35-12,251.31-35.2,349.03-59.99,34.35-8.71,52.04-14.79,68.23-48.63,43.79-91.51-9.01-233.83,102.62-288.43,74.08-36.23,145.36-14.41,217.98,11.07,30.97,10.86,156.8,59.87,173.04,78.67,10.87,12.57,50.16,93.05,47.22,106.19-1.25,5.6-17.66,23.94-20.27,21.97l-9.11-26.95-35.8,22.46-15.83-26.88c-6.72,5.42-13.45,10.85-20.17,16.27-8.26-6.92-16.52-13.84-24.78-20.76-5.99,5.94-11.99,11.88-17.98,17.82-6.19-5.85-12.39-11.69-18.58-17.54-5.74,2.25-11.48,4.5-17.21,6.75-4.51-2.38-9.02-4.77-13.54-7.15-13.05,11.58-7.83,13.55,5.57,16.74,50.55,12.03,107.12,16.34,158.52,25.85,10.1,5.65-6.85,26.82-12.11,28.63-22.76,7.81-76.03-4.21-102.81-4.03-36.41.24-73.54,6.79-112.4,4.95-72.05-3.4-103.21-40.52-118.31,52.12-4.35,26.7-8.92,66.88-9.79,93.59-2.24,68.7,30.9,124.31,22.16,197.46-2.39,19.99-14.79,34.98-17.21,50.21-2.02,12.68-2.46,59.54-.17,71.55,3.11,16.26,65.66,60.27,80.79,81.03,21.42,29.39,38.32,132.27,12.24,158.28-14.61,14.57-64.19,8.24-75.13-3.3-7.43-7.84,20.41-12.99,24.98-26.62,2.41-7.21,3.96-26.59-4.74-27.14-4.86-.3-40.46,27.86-56.21,17.89,17.3,71.42-23.55,123.83-89.89,71.95,25.37,4.81,44.85-48.1,20.93-44.43-11.1,1.71-38.15,24.76-56.9,17.36,48.48-35.82,43.63-77.45,4.46-119.03-26.44-28.06-73.92-34.18-71.93-78.7l-224.23,72.36c-7.18,8.28,10.09,128.42-10.12,162.94-10.31,17.61-63.73,58.9-82.59,74.72-30.96,25.97-63.92,50.35-96.45,74.35-4.73,3.35-4.24,8.16-4.85,13.13-2.09,17.11-2.58,83.47.38,99.06.44,2.3,25.42,36.63,27.34,37.96,6.52,4.5,54.27-37.35,65.6-43.7,60.28-33.82,115.11-26.86,127.18,48.52-3.11,3.36-46.32-32.84-72.03-25.11-21.38,6.43-40.29,63.29-62.72,76.82,28.75,35.59,84.47,29.37,103.3,74.17h-150.58ZM1795.47,66.4c-26.87-31.09-64.92,15.78-41.46,39.23,20.93,20.93,67.95-8.59,41.46-39.23ZM1566.49,785.32c8.64,19.06,61.4,52.75,76.04,72.3,5.71,7.62,14.84,26.43,18.24,35.69,6.97,19.02,4.16,63.46,29.37,15.82,44.82-84.71-97.94-104.92-94.53-177.68-2.33-2.53-29.34,7.58-30.68,9.76-2.92,4.75-1.55,37.26,1.56,44.12Z"/>
  </g>
</svg>